<?xml version="1.0" encoding="UTF-8" standalone="no"?>
<svg
   xmlns:dc="http://purl.org/dc/elements/1.1/"
   xmlns:cc="http://creativecommons.org/ns#"
   xmlns:rdf="http://www.w3.org/1999/02/22-rdf-syntax-ns#"
   xmlns:svg="http://www.w3.org/2000/svg"
   xmlns="http://www.w3.org/2000/svg"
   xmlns:sodipodi="http://sodipodi.sourceforge.net/DTD/sodipodi-0.dtd"
   xmlns:inkscape="http://www.inkscape.org/namespaces/inkscape"
   enable-background="new 0 0 378.9 56.8"
   viewBox="0 0 378.9 56.8"
   version="1.1"
   id="svg28"
   sodipodi:docname="logo.svg"
   inkscape:export-filename="/home/clemens/Downloads/tuwien-thesis-coverpage-template-master/figs/logo.svg.png"
   inkscape:export-xdpi="96"
   inkscape:export-ydpi="96"
   inkscape:version="0.92.4 5da689c313, 2019-01-14">
  <metadata
     id="metadata34">
    <rdf:RDF>
      <cc:Work
         rdf:about="">
        <dc:format>image/svg+xml</dc:format>
        <dc:type
           rdf:resource="http://purl.org/dc/dcmitype/StillImage" />
      </cc:Work>
    </rdf:RDF>
  </metadata>
  <defs
     id="defs32" />
  <sodipodi:namedview
     pagecolor="#ffffff"
     bordercolor="#666666"
     borderopacity="1"
     objecttolerance="10"
     gridtolerance="10"
     guidetolerance="10"
     inkscape:pageopacity="0"
     inkscape:pageshadow="2"
     inkscape:window-width="1920"
     inkscape:window-height="1027"
     id="namedview30"
     showgrid="false"
     inkscape:zoom="0.82343628"
     inkscape:cx="189.45"
     inkscape:cy="28.4"
     inkscape:window-x="0"
     inkscape:window-y="0"
     inkscape:window-maximized="1"
     inkscape:current-layer="svg28" />
  <g
     stroke="#000"
     stroke-miterlimit="10"
     stroke-width=".25"
     id="g24">
    <path
       d="m77.1 51.6h-1.7v-45.5h1.7z"
       id="path2" />
    <path
       d="m89.6 25.7c1-2.5 2.7-4.7 4.9-6.2 2.1-1.5 4.6-2.3 7.1-2.3 3.6 0 6.3 1 8.1 3.1s2.7 5.2 2.7 9.3v22.1h-1.7v-22.2c0-3.6-.8-6.3-2.2-8-1.5-1.7-3.8-2.6-6.9-2.6-2.8 0-5.6 1.1-7.6 3.1-2.2 2.2-3.7 5-4.3 8v21.6h-1.7v-33.8h1.7v7.9z"
       id="path4" />
    <path
       d="m125.4 51.6v-29.1h-5.9v-1.7h5.9v-4.9c0-3.1.8-5.6 2.4-7.3 1.7-1.8 4-2.7 6.5-2.6 1.4 0 2.7.2 4 .5l-.3 1.6c-1.2-.3-2.5-.5-3.7-.5-2-.1-3.9.7-5.3 2.2-1.4 1.7-2.1 3.9-1.9 6.2v4.8h8.9v1.7h-8.9v29.1z"
       id="path6" />
    <path
       d="m140.4 34c0-3 .6-6 1.9-8.7 1.1-2.5 3-4.5 5.3-6 2.3-1.4 5-2.2 7.7-2.2 5.5-.1 10.6 3 12.9 8 1.3 2.7 1.9 5.7 1.9 8.7v1.5c.1 3-.6 6-1.8 8.7-1.1 2.5-3 4.5-5.2 6-2.3 1.4-5 2.2-7.7 2.2-5.5.1-10.6-3.1-12.9-8.1-1.3-2.7-1.9-5.6-1.9-8.6zm1.7 1.4c0 2.7.5 5.3 1.7 7.7 1 2.2 2.6 4.1 4.7 5.5 2 1.3 4.4 2 6.8 2 3.6.1 7.1-1.5 9.4-4.3 2.4-2.9 3.6-6.6 3.6-11.2v-1c0-2.7-.6-5.3-1.7-7.7-1-2.2-2.6-4.1-4.7-5.5-2-1.3-4.4-2-6.8-2-3.7-.1-7.2 1.5-9.4 4.4-2.5 3.1-3.8 7.1-3.7 11.1v1z"
       id="path8" />
    <path
       d="m193 19-2.2-.2c-2.7-.1-5.3.9-7.2 2.8-2.1 2.1-3.4 4.9-3.8 7.8v22.1h-1.7v-33.7h1.7v7c.8-2.2 2.2-4.2 4.1-5.6 2-1.4 4.4-2.2 6.9-2.1.8 0 1.6.1 2.4.4z"
       id="path10" />
    <path
       d="m223.7 51.6h-1.7v-22.7c0-3.4-.8-5.9-2.2-7.6-1.5-1.7-3.8-2.5-7-2.5-3.7 0-7.1 1.8-9.1 4.9-1.4 1.9-2.3 4.2-2.8 6.5v21.4h-1.7v-33.8h1.7v8c1-2.6 2.7-4.8 4.9-6.4 4.2-2.9 9.7-3 14-.4 1.9 1.5 3.2 3.7 3.5 6.1 1-2.4 2.7-4.4 4.9-5.8 2.3-1.4 4.9-2.2 7.6-2.2 3.6 0 6.4 1 8.1 3.1s2.7 5.2 2.7 9.3v22.1h-1.7v-21.9c0-3.7-.7-6.4-2.2-8.2s-3.8-2.6-7-2.6c-3.9-.1-7.5 1.8-9.8 4.9-1.2 1.5-2 3.4-2.3 5.4z"
       id="path12" />
    <path
       d="m278.6 51.6c-.5-2-.7-4.1-.6-6.2-1.3 2.2-3.2 3.9-5.5 5-2.4 1.2-5.1 1.8-7.8 1.8-2.7.1-5.4-.8-7.5-2.5-1.9-1.7-2.9-4.1-2.9-6.6 0-3.1 1.6-5.9 4.2-7.5 2.8-1.9 6.5-2.8 11.2-2.9h8.3v-4.9c.1-2.5-.8-4.9-2.7-6.6-1.8-1.6-4.3-2.3-7.6-2.3-2.8-.1-5.5.7-7.7 2.4-1.9 1.3-3.1 3.5-3.1 5.9l-1.7-.1c0-2.8 1.4-5.4 3.6-7 2.5-2 5.7-3 8.9-2.9 3.6 0 6.5.9 8.7 2.7 2.2 1.9 3.4 4.8 3.3 7.7v16.2c0 3.7.3 6.2.9 7.6v.3h-2zm-13.9-1.1c2.9.1 5.7-.7 8.2-2.1 2.3-1.4 4.1-3.5 5.1-6v-8h-7.8c-4.8 0-8.5 1-11.1 2.9-1.9 1.3-3.1 3.5-3.1 5.8 0 2 .9 4 2.5 5.3 1.7 1.5 3.9 2.2 6.2 2.1z"
       id="path14" />
    <path
       d="m294.3 7.7v9.1h7.7v1.7h-7.7v25c-.1 1.8.3 3.7 1.2 5.3.9 1.2 2.4 1.9 3.9 1.7 1.1 0 2.2-.1 3.3-.3l.3 1.6c-1.2.3-2.3.4-3.5.4-2.5 0-4.2-.7-5.3-2s-1.6-3.5-1.6-6.5v-25.2h-6.3v-1.7h6.3v-9.1z"
       id="path16" />
    <path
       d="m310.2 7.7c0-.5.2-.9.5-1.2s.8-.5 1.2-.5c1 0 1.7.8 1.8 1.8 0 .5-.2.9-.5 1.2s-.8.5-1.2.5c-1-.1-1.8-.8-1.8-1.8zm2.6 43.9h-1.7v-34.8h1.7z"
       id="path18" />
    <path
       d="m335.3 50.5c2.7.1 5.4-.8 7.6-2.4 2-1.7 3.2-4.1 3.3-6.8h1.7c-.1 3.1-1.4 5.9-3.8 7.9-2.5 2-5.6 3.1-8.8 3-3.9.2-7.6-1.6-10.1-4.6-2.5-3.1-3.7-7.2-3.7-12.5v-1.1c0-5.1 1.2-9.2 3.7-12.3 2.4-3 6.1-4.7 10-4.6 3.3-.1 6.4 1 8.9 3.2 2.4 2.2 3.7 5.3 3.7 8.6h-1.7c0-2.8-1.2-5.4-3.2-7.3-2.1-1.9-4.9-2.9-7.7-2.8-3.4-.2-6.7 1.4-8.9 4.1-2.1 2.7-3.2 6.5-3.2 11.3v1.1c0 4.7 1.1 8.4 3.2 11.1 2.2 2.8 5.5 4.3 9 4.1z"
       id="path20" />
    <path
       d="m377.1 43.3c0-4.1-3.5-6.9-10.5-8.4-4.2-.9-7.1-2-8.8-3.5s-2.6-3.6-2.5-5.8c0-2.4 1.2-4.7 3.1-6.1 2.4-1.7 5.3-2.5 8.2-2.4 3.1-.2 6.2.8 8.8 2.6 2.2 1.7 3.4 4.3 3.3 7h-1.7c0-2.2-1.1-4.4-2.9-5.7-2.2-1.6-4.8-2.4-7.5-2.3-2.5-.1-5 .5-7 1.9-1.6 1.1-2.6 2.9-2.6 4.8-.1 1.3.3 2.5 1 3.6.9 1 1.9 1.8 3.2 2.3 2 .9 4.2 1.6 6.4 2 2.3.5 4.5 1.2 6.6 2.3 1.4.7 2.7 1.8 3.5 3.1s1.1 2.9 1.1 4.4c.1 2.6-1.2 5-3.3 6.4-2.5 1.7-5.5 2.6-8.6 2.4-3.3.2-6.5-.7-9.2-2.6-2.2-1.5-3.5-4-3.5-6.6h1.7c.1 2.2 1.3 4.3 3.1 5.5 2.3 1.4 5.1 2.1 7.8 2 2.6.1 5.2-.6 7.4-2.1 1.8-.8 2.8-2.7 2.9-4.8z"
       id="path22" />
  </g>
  <path
     clip-rule="evenodd"
     d="m41.4 27.8h.3c2.3-.6 4-2.8 4-5.2l-.1-16.8h6.2v16.8c0 5.8-4.4 10.7-10.1 11.3h-.2zm-1.9 6.2h-.3c-5.7-.6-10.1-5.4-10.1-11.2v-17h6.2v16.7c0 2.4 1.7 4.6 4 5.2.1 0 .2 0 .3.1zm-34.8-28.2h21.3v6.1h-21.3zm7.7 27.9v-20.2h6.1v20.2zm5.1 7.8h-2l-1.6 6.3-1.8-6.3h-1.5l-1.8 6.3-1.5-6.3h-2l2.7 10h1.6l1.8-6.1 1.8 6.1h1.6zm34.3 10v-10h-2v6.1l-4-6.1h-1.7v10h2v-6.1l4 6.1zm-13.9 0v-1.7h-4.6v-2.4h3.9v-1.7h-3.9v-2.3h4.6v-1.7h-6.6v10h6.6zm-13.3 0v-10h-2v10zm-18.5-51.5h45.3c3.2 0 5.7 2.6 5.7 5.7v45.3c0 3.2-2.6 5.7-5.7 5.7h-45.3c-3.2 0-5.7-2.6-5.7-5.7v-45.3c0-3.1 2.5-5.7 5.7-5.7z"
     fill-rule="evenodd"
     id="path26" />
</svg>
